<?xml version="1.0" standalone="no"?>
<!DOCTYPE svg PUBLIC "-//W3C//DTD SVG 20010904//EN"
 "http://www.w3.org/TR/2001/REC-SVG-20010904/DTD/svg10.dtd">
<svg version="1.0" xmlns="http://www.w3.org/2000/svg"
 width="696.000000pt" height="696.000000pt" viewBox="0 0 696.000000 696.000000"
 preserveAspectRatio="xMidYMid meet">
<metadata>
Created by potrace 1.14, written by Peter Selinger 2001-2017
</metadata>
<g transform="translate(0.000000,696.000000) scale(0.100000,-0.100000)"
fill="#000000" stroke="none">
<path d="M2819 6073 c-13 -16 -12 -17 4 -4 16 13 21 21 13 21 -2 0 -10 -8 -17
-17z"/>
<path d="M2727 6024 c-1 -1 -33 -4 -72 -8 -38 -4 -94 -13 -123 -20 -29 -8 -53
-14 -55 -15 -7 0 -48 -16 -83 -32 -22 -11 -43 -19 -47 -19 -4 0 -15 -7 -24
-15 -10 -8 -22 -16 -28 -17 -22 -5 -155 -131 -155 -147 0 -6 -4 -11 -9 -11 -5
0 -13 -9 -16 -20 -4 -11 -11 -17 -17 -14 -6 4 -8 2 -4 -4 5 -9 -20 -78 -34
-92 -3 -3 -7 -21 -8 -40 -2 -19 -5 -36 -7 -38 -1 -1 -24 5 -50 14 -27 9 -60
18 -74 21 -34 6 -43 9 -61 16 -58 22 -264 36 -335 23 -16 -3 -46 -9 -65 -13
-19 -3 -37 -7 -40 -7 -23 -4 -112 -44 -139 -62 -19 -13 -39 -20 -45 -17 -6 3
-8 3 -4 -2 10 -11 -39 -48 -53 -39 -8 5 -9 3 -5 -5 5 -8 -6 -26 -28 -48 -19
-20 -38 -44 -41 -54 -4 -11 -10 -19 -14 -19 -7 0 -82 -149 -88 -175 -1 -5 -7
-28 -13 -50 -6 -22 -13 -56 -17 -75 -3 -19 -10 -41 -17 -49 -8 -12 -8 -13 1
-7 8 4 11 2 7 -7 -3 -8 -6 -27 -7 -42 -2 -30 -8 -34 -79 -58 -43 -14 -47 -14
-51 1 -3 12 -5 11 -6 -5 -1 -15 -9 -23 -31 -28 -16 -4 -35 -3 -41 1 -7 4 -10
3 -7 -2 6 -9 -9 -28 -27 -33 -5 -2 -26 -11 -46 -22 -20 -10 -40 -15 -44 -11
-5 4 -5 1 -1 -5 4 -7 3 -13 -1 -13 -25 0 -143 -113 -169 -160 -10 -19 -23 -38
-27 -41 -5 -3 -9 -10 -8 -15 1 -19 -11 -54 -19 -54 -4 0 -8 -12 -8 -27 0 -16
-2 -51 -2 -78 -2 -60 7 -135 20 -171 6 -14 8 -30 4 -35 -3 -5 -1 -9 3 -9 12 0
44 -90 36 -103 -3 -5 -1 -7 4 -4 6 4 17 -6 24 -21 21 -41 72 -126 80 -132 3
-3 11 -14 17 -25 9 -18 5 -27 -21 -55 -34 -37 -80 -121 -80 -145 0 -8 -3 -15
-7 -15 -4 0 -5 -26 -3 -57 4 -63 30 -143 46 -143 6 0 8 -3 4 -6 -3 -3 2 -15
11 -26 28 -32 83 -88 87 -88 12 0 43 -34 39 -42 -3 -4 1 -5 8 -3 8 3 23 -3 35
-14 11 -11 24 -17 27 -14 3 4 6 1 6 -6 0 -7 5 -9 10 -6 6 3 10 3 10 -2 0 -4
15 -14 32 -22 61 -26 123 -53 148 -65 26 -12 34 -47 16 -75 -6 -10 -6 -12 2
-7 7 4 12 1 13 -6 1 -13 4 -36 15 -98 3 -19 6 -36 5 -37 0 -2 11 -33 25 -70
29 -76 84 -172 120 -208 13 -13 24 -29 24 -35 0 -6 5 -8 12 -4 8 5 9 2 5 -10
-4 -11 -3 -15 4 -10 6 4 14 2 18 -3 13 -19 109 -82 156 -102 28 -12 58 -26 67
-31 10 -6 27 -10 38 -10 11 0 20 -4 20 -8 0 -4 14 -9 32 -10 17 -2 38 -8 45
-14 7 -6 13 -8 13 -6 0 3 21 1 48 -4 26 -5 84 -11 130 -13 50 -2 90 -9 99 -17
9 -7 14 -8 10 -2 -10 18 62 23 79 6 8 -7 14 -19 15 -25 0 -7 2 -22 5 -35 3
-16 0 -21 -8 -16 -7 4 -8 3 -4 -5 4 -6 11 -9 16 -6 4 3 13 -8 18 -25 16 -44
89 -166 117 -195 14 -13 25 -29 25 -35 0 -5 5 -10 11 -10 7 0 25 -13 41 -30
15 -16 32 -30 36 -30 4 0 19 -11 34 -25 14 -13 38 -27 52 -31 14 -3 26 -10 26
-15 0 -5 9 -9 21 -9 11 0 17 -4 14 -10 -3 -5 0 -7 8 -4 7 2 27 0 43 -7 16 -6
40 -13 54 -16 13 -2 28 -10 32 -16 6 -9 8 -9 8 0 0 8 14 10 48 6 63 -8 155 -8
221 1 54 7 88 -5 74 -27 -3 -5 -1 -7 5 -3 6 3 17 -3 25 -14 7 -11 16 -17 19
-14 4 3 9 -4 13 -15 3 -12 10 -19 15 -16 5 3 18 -3 30 -15 11 -11 20 -17 20
-12 0 4 4 2 8 -3 9 -14 169 -86 202 -91 14 -3 32 -7 40 -11 19 -7 40 -13 63
-15 9 -1 17 -5 17 -8 0 -3 15 -6 34 -7 38 -3 120 -46 109 -57 -5 -4 -3 -6 2
-4 14 4 75 -23 75 -33 0 -5 7 -9 16 -9 9 0 12 -5 8 -12 -4 -7 -3 -8 4 -4 14 8
52 -10 52 -25 0 -6 -5 -7 -12 -3 -7 4 -8 3 -4 -5 5 -8 12 -9 19 -2 14 11 51
-11 39 -24 -4 -5 -2 -5 5 -2 6 4 18 0 26 -8 9 -8 19 -15 24 -15 5 0 16 -8 25
-18 8 -9 37 -36 62 -60 26 -24 43 -48 40 -54 -4 -6 -3 -8 3 -5 11 7 73 -64 73
-82 0 -6 4 -11 9 -11 13 0 114 -210 141 -293 18 -54 19 -71 10 -83 -11 -12
-10 -13 5 -7 14 5 17 3 12 -10 -3 -9 -2 -19 4 -22 5 -4 7 -10 4 -15 -3 -5 -1
-11 5 -15 5 -3 10 -19 10 -35 0 -27 2 -29 23 -21 24 9 69 19 117 26 14 1 25 4
25 5 0 2 9 4 20 6 11 2 40 8 64 14 24 6 51 8 58 6 8 -3 11 -1 8 4 -3 6 4 10
17 11 13 0 30 2 38 4 8 2 26 7 40 10 14 3 34 8 45 10 11 3 30 7 43 10 12 3 31
7 42 9 11 3 24 7 29 10 5 4 12 0 14 -6 4 -10 6 -10 6 -1 1 7 17 15 37 19 38 7
37 2 18 84 -3 14 -7 34 -8 45 -1 11 -4 25 -7 30 -3 6 -6 25 -8 44 -1 19 -5 39
-10 45 -4 6 -8 25 -9 41 -3 45 -7 64 -15 71 -4 4 -1 14 6 22 9 13 9 14 0 8
-13 -7 -19 21 -15 67 1 9 -2 17 -7 17 -6 0 -10 8 -10 18 1 29 -7 72 -14 79 -4
3 -1 13 6 21 9 13 9 14 0 8 -7 -4 -13 -2 -13 3 0 6 6 11 13 11 8 0 8 3 -2 9
-15 10 -17 17 -27 91 -3 24 -10 52 -15 62 -10 18 -2 22 39 21 6 -1 12 3 12 7
0 9 44 26 46 19 0 -2 8 2 17 9 9 8 21 11 27 7 5 -3 10 -1 10 4 0 6 7 11 15 11
8 0 15 4 15 8 0 5 20 19 46 32 25 13 69 48 99 78 35 35 58 51 67 47 10 -6 10
-5 2 4 -9 10 -5 22 14 52 25 37 41 47 56 32 3 -4 16 -8 28 -10 12 -2 28 -9 37
-16 12 -10 13 -9 6 2 -6 11 -4 13 11 6 10 -4 30 -8 44 -9 14 -1 30 -4 35 -7 6
-3 40 -5 77 -4 39 0 68 -4 68 -10 0 -7 3 -7 8 0 4 6 12 11 17 11 131 20 141
23 257 86 15 8 25 18 21 21 -3 4 -1 7 4 7 24 0 138 131 126 144 -4 3 -1 6 5 6
7 0 12 7 12 16 0 9 5 12 12 8 6 -4 8 -3 5 4 -4 5 2 31 13 57 19 43 27 72 35
120 2 11 4 20 5 20 2 0 4 14 5 30 2 17 4 32 5 35 1 3 2 12 1 22 -1 9 3 20 10
24 8 5 9 3 4 -6 -6 -10 -4 -11 6 -4 8 5 31 10 51 11 21 1 46 7 56 12 13 7 23
6 30 -1 8 -8 12 -9 12 -1 0 6 25 23 57 38 31 16 74 45 96 66 23 21 45 35 51
32 5 -4 7 0 3 10 -3 9 3 26 16 40 12 13 23 31 25 38 2 8 10 21 17 29 7 8 14
17 15 20 5 29 14 50 19 50 4 0 7 8 8 18 1 9 7 37 13 62 17 65 18 72 19 103 1
16 5 26 11 22 6 -4 7 2 1 18 -5 13 -6 29 -2 35 8 13 6 196 -2 275 -4 35 -2 45
6 40 7 -3 4 2 -5 13 -16 19 -15 21 24 54 23 19 46 41 52 48 6 7 20 23 31 35
29 31 84 146 88 182 2 17 5 35 8 40 3 6 4 26 3 45 -1 30 -4 49 -20 113 -1 4
-3 9 -4 12 -1 3 -3 8 -5 13 -14 52 -81 157 -140 221 -64 69 -144 141 -158 141
-5 0 -5 5 -2 10 3 6 -3 10 -15 10 -12 0 -18 5 -15 10 3 6 0 10 -8 10 -7 0 -23
9 -35 20 -12 11 -25 20 -30 20 -4 0 -17 8 -28 18 -10 10 -34 25 -52 33 -18 7
-30 19 -28 25 3 7 -4 10 -17 8 -12 -2 -17 -2 -11 1 7 3 10 14 8 23 -10 47 -10
112 -1 112 6 0 2 6 -9 14 -10 8 -16 18 -12 21 4 4 3 17 -3 28 -9 15 -8 18 3
11 7 -4 4 3 -7 15 -11 13 -18 24 -15 25 7 2 -54 136 -62 136 -5 0 -8 6 -8 13
0 7 -8 22 -17 33 -10 10 -30 35 -45 55 -38 51 -200 209 -214 209 -5 0 -19 10
-80 59 -6 5 -26 17 -45 26 -19 10 -36 21 -39 25 -3 3 -26 17 -52 29 -27 13
-48 27 -48 32 0 5 -3 8 -7 8 -25 -4 -43 2 -37 13 5 8 2 9 -10 5 -10 -4 -19 -1
-22 8 -4 8 -10 12 -15 9 -5 -3 -23 1 -41 9 -18 8 -46 19 -63 25 -16 6 -39 13
-50 18 -37 13 -77 23 -127 31 -21 3 -38 9 -38 13 0 7 -22 32 -90 106 -15 16
-50 48 -76 70 -26 21 -56 47 -66 57 -10 9 -20 16 -22 15 -2 -2 -25 11 -52 29
-46 29 -189 108 -189 104 0 -2 -13 2 -28 8 -16 6 -33 11 -38 11 -5 0 -9 4 -9
8 0 5 -6 9 -12 10 -31 2 -73 14 -85 24 -7 6 -13 8 -13 5 0 -3 -21 0 -47 8 -27
8 -58 15 -71 15 -13 0 -21 3 -19 8 3 4 -7 7 -21 8 -15 0 -47 4 -72 8 -144 23
-482 25 -518 2 -7 -4 -12 -2 -12 6 0 10 -2 10 -8 1 -4 -7 -25 -15 -46 -19 -58
-9 -69 -11 -101 -24 -38 -15 -106 -15 -115 0 -4 7 -10 11 -14 11 -29 -4 -46 1
-40 11 4 7 3 8 -4 4 -14 -8 -84 3 -78 13 2 3 -10 6 -28 7 -18 0 -41 4 -52 8
-10 5 -37 10 -59 11 -22 2 -65 6 -95 10 -53 7 -188 13 -193 9z"/>
<path d="M2030 5639 c0 -5 5 -7 10 -4 6 3 10 8 10 11 0 2 -4 4 -10 4 -5 0 -10
-5 -10 -11z"/>
<path d="M5050 5519 c0 -5 5 -7 10 -4 6 3 10 8 10 11 0 2 -4 4 -10 4 -5 0 -10
-5 -10 -11z"/>
<path d="M6065 4740 c-3 -6 1 -7 9 -4 18 7 21 14 7 14 -6 0 -13 -4 -16 -10z"/>
<path d="M630 3246 c0 -2 7 -7 16 -10 8 -3 12 -2 9 4 -6 10 -25 14 -25 6z"/>
<path d="M834 3182 c4 -3 14 -7 22 -8 9 -1 13 0 10 4 -4 3 -14 7 -22 8 -9 1
-13 0 -10 -4z"/>
<path d="M796 3153 c-6 -14 -5 -15 5 -6 7 7 10 15 7 18 -3 3 -9 -2 -12 -12z"/>
<path d="M6120 2480 c-9 -6 -10 -10 -3 -10 6 0 15 5 18 10 8 12 4 12 -15 0z"/>
<path d="M5939 2468 c-5 -18 -6 -38 -1 -34 7 8 12 36 6 36 -2 0 -4 -1 -5 -2z"/>
<path d="M1790 2381 c0 -6 4 -13 10 -16 6 -3 7 1 4 9 -7 18 -14 21 -14 7z"/>
<path d="M1876 2353 c-6 -14 -5 -15 5 -6 7 7 10 15 7 18 -3 3 -9 -2 -12 -12z"/>
<path d="M2756 1818 c3 -4 11 -5 19 -1 21 7 19 12 -4 10 -11 0 -18 -5 -15 -9z"/>
<path d="M2836 1753 c-6 -14 -5 -15 5 -6 7 7 10 15 7 18 -3 3 -9 -2 -12 -12z"/>
<path d="M4715 1631 c-3 -5 -2 -12 3 -15 5 -3 9 1 9 9 0 17 -3 19 -12 6z"/>
<path d="M3335 1591 c-3 -5 -2 -12 3 -15 5 -3 9 1 9 9 0 17 -3 19 -12 6z"/>
<path d="M4675 1551 c-3 -5 -2 -12 3 -15 5 -3 9 1 9 9 0 17 -3 19 -12 6z"/>
<path d="M3450 1519 c0 -5 5 -7 10 -4 6 3 10 8 10 11 0 2 -4 4 -10 4 -5 0 -10
-5 -10 -11z"/>
<path d="M3535 1460 c3 -5 8 -10 11 -10 2 0 4 5 4 10 0 6 -5 10 -11 10 -5 0
-7 -4 -4 -10z"/>
<path d="M3710 1256 c0 -2 8 -10 18 -17 15 -13 16 -12 3 4 -13 16 -21 21 -21
13z"/>
<path d="M3795 1201 c-3 -5 -2 -12 3 -15 5 -3 9 1 9 9 0 17 -3 19 -12 6z"/>
<path d="M4716 1162 c-3 -5 1 -9 9 -9 8 0 12 4 9 9 -3 4 -7 8 -9 8 -2 0 -6 -4
-9 -8z"/>
<path d="M4790 1161 c0 -6 4 -13 10 -16 6 -3 7 1 4 9 -7 18 -14 21 -14 7z"/>
</g>
</svg>
